/vscmnt/brussel_pixiu_data/_data_brussel/112/vsc11236/PredSimResults/SUBJ06opt3D/trackIG/worker_05.mot
version=1
nRows=9
nColumns=50
inDegrees=yes
endheader
                time	         pelvis_tilt	         pelvis_list	     pelvis_rotation	           pelvis_tx	           pelvis_ty	           pelvis_tz	       hip_flexion_r	     hip_adduction_r	      hip_rotation_r	        knee_angle_r	       ankle_angle_r	         mtp_angle_r	       hip_flexion_l	     hip_adduction_l	      hip_rotation_l	        knee_angle_l	       ankle_angle_l	         mtp_angle_l	    lumbar_extension	      lumbar_bending	     lumbar_rotation	 ercspn_r/activation	 intobl_r/activation	 extobl_r/activation	    abd_r/activation	    add_r/activation	hamstrings_r/activation	bifemsh_r/activation	glut_max_r/activation	iliopsoas_r/activation	rect_fem_r/activation	  vasti_r/activation	gastroc_r/activation	 soleus_r/activation	tib_ant_r/activation	 ercspn_l/activation	 intobl_l/activation	 extobl_l/activation	    abd_l/activation	    add_l/activation	hamstrings_l/activation	bifemsh_l/activation	glut_max_l/activation	iliopsoas_l/activation	rect_fem_l/activation	  vasti_l/activation	gastroc_l/activation	 soleus_l/activation	tib_ant_l/activation	
          0.00000000	         -3.79770509	         -2.42695867	          5.87974793	          0.00000000	          0.93906380	         -0.01197525	         28.24004075	          0.06754720	        -10.11990017	         -9.36338248	         -0.86947755	          0.22060870	        -10.92999396	         -3.18314614	         -8.97015306	        -11.96470771	          8.53231505	         31.99190092	         -5.48752796	          0.99075877	         -7.89173446	          0.18773409	          0.18831589	          0.00999999	          0.00999999	          0.32070595	          0.04075708	          0.01000000	          0.01438097	          0.12074665	          0.01320454	          0.08638726	          0.00999999	          0.00999999	          0.52014473	          0.11376481	          0.00999999	          0.00999999	          0.07816009	          0.00999999	          0.00999999	          0.18021415	          0.01542859	          0.26939072	          0.02181285	          0.00999999	          0.21341545	          0.33482380	          0.01794875	
          0.01291711	         -3.87384262	         -2.37651608	          5.83323554	          0.01627416	          0.93751670	         -0.01098474	         27.83880233	          0.17969583	        -10.08251295	        -10.04624567	         -1.31925083	          0.20114324	        -11.38895708	         -3.33457470	         -9.47147769	        -12.75950936	          7.56388319	         33.72351052	         -5.10075505	          1.34573819	         -8.34051748	          0.16002940	          0.16744602	          0.00999999	          0.00999999	          0.26389359	          0.04228151	          0.00999999	          0.01183342	          0.09935664	          0.01086538	          0.10909866	          0.01476916	          0.01476916	          0.52718099	          0.12222900	          0.00999999	          0.00999999	          0.06431420	          0.00999999	          0.00999999	          0.15688675	          0.01269545	          0.22314733	          0.01794875	          0.00999999	          0.17864233	          0.31224630	          0.01476916	
          0.02583421	         -3.93367494	         -2.35307030	          5.75190464	          0.03290189	          0.93621858	         -0.00993074	         27.23641008	          0.29647861	        -10.07209265	        -10.65501900	         -1.58524203	          0.18815721	        -11.72924452	         -3.54421642	         -9.97374657	        -13.82131782	          6.45585598	         35.47257026	         -4.69502013	          1.74774830	         -8.74248020	          0.13168054	          0.13778332	          0.00999999	          0.03388335	          0.21714542	          0.05933227	          0.01215284	          0.00999999	          0.08175583	          0.00999999	          0.11259902	          0.01215284	          0.01215284	          0.58255008	          0.11487717	          0.00999999	          0.00999999	          0.05292108	          0.00999999	          0.00999999	          0.17147387	          0.01044648	          0.28437437	          0.01476917	          0.00999999	          0.14699623	          0.28633371	          0.01215284	
          0.03875132	         -3.98126296	         -2.35823176	          5.62646306	          0.04956693	          0.93532726	         -0.00875155	         26.55782930	          0.43808256	        -10.21755127	        -11.14810001	         -1.88491157	          0.15904730	        -11.82398466	         -3.83250024	        -10.47882509	        -15.33262356	          5.18666491	         37.23809779	         -4.30783592	          2.18969324	         -9.08347011	          0.13167518	          0.11337531	          0.00999999	          0.08555844	          0.17867858	          0.06208686	          0.00999999	          0.06573642	          0.06727296	          0.00999999	          0.13690558	          0.00999999	          0.00999999	          0.61164610	          0.15769842	          0.00999999	          0.00999999	          0.04354623	          0.00999999	          0.00999999	          0.14559096	          0.00999999	          0.23615003	          0.01215284	          0.00999999	          0.12095617	          0.24921345	          0.00999999	
          0.05166842	         -4.01795865	         -2.39234303	          5.46615151	          0.06602097	          0.93508476	         -0.00745021	         25.89898456	          0.60432030	        -10.42747364	        -11.73118497	         -1.79958961	          0.13690436	        -11.59369874	         -4.21574982	        -10.98503417	        -17.38042456	          3.67868951	         38.97439546	         -3.96114733	          2.66481785	         -9.36665893	          0.12112852	          0.09329112	          0.00999999	          0.13092749	          0.14702606	          0.06565637	          0.01000000	          0.07798329	          0.05535570	          0.00999999	          0.17383850	          0.00999999	          0.00999999	          0.57512856	          0.20467896	          0.00999999	          0.00999999	          0.03583211	          0.01497579	          0.06212648	          0.11979984	          0.00999999	          0.19431657	          0.00999999	          0.00999999	          0.09952905	          0.20506583	          0.00999999	
          0.06458553	         -4.04639599	         -2.45173090	          5.28890344	          0.08208488	          0.93569494	         -0.00604619	         25.26194098	          0.81400786	        -10.53583579	        -12.41435798	         -1.13890658	          0.21541964	        -10.99073274	         -4.70291280	        -11.48168982	        -19.99648892	          1.88683694	         40.50178776	         -3.66462589	          3.16034858	         -9.60675747	          0.11893568	          0.07676480	          0.00999999	          0.14910884	          0.12098073	          0.06847805	          0.00999999	          0.10781072	          0.04554956	          0.00999999	          0.20509067	          0.00999999	          0.00999999	          0.50049836	          0.22576934	          0.00999999	          0.00999999	          0.02948453	          0.13958275	          0.11107151	          0.11694582	          0.00999999	          0.15989381	          0.00999999	          0.00999999	          0.08189769	          0.16873886	          0.00999999	
          0.07750264	         -4.06946801	         -2.49518040	          5.09742380	          0.09766451	          0.93721152	         -0.00458471	         24.56817248	          1.03792992	        -10.52716547	        -12.99061205	         -0.23553372	          0.43644430	        -10.00978344	         -5.25252514	        -11.99804530	        -23.15586392	         -0.15242810	         41.46463927	         -3.42432750	          3.62819407	         -9.80416689	          0.11386977	          0.06316609	          0.00999999	          0.15383367	          0.11032620	          0.07340319	          0.01000000	          0.08871228	          0.03748056	          0.00999999	          0.20622606	          0.00999999	          0.00999999	          0.42477726	          0.22037949	          0.00999999	          0.00999999	          0.02426141	          0.20009485	          0.13557579	          0.10744473	          0.00999999	          0.13156897	          0.00999999	          0.00999999	          0.06738970	          0.13884714	          0.00999999	
          0.09041974	         -4.08846930	         -2.48097008	          4.89147529	          0.11274204	          0.93950027	         -0.00310780	         23.76379285	          1.23182100	        -10.44739316	        -13.30985579	          0.59220829	          0.76851612	         -8.67367426	         -5.83149703	        -12.55465592	        -26.83963864	         -2.23146183	         41.31764356	         -3.24327329	          4.02330056	         -9.95513089	          0.11166386	          0.05197635	          0.00999999	          0.14586232	          0.09078216	          0.07859093	          0.00999999	          0.07882290	          0.03084096	          0.00999999	          0.19982058	          0.00999999	          0.00999999	          0.37070148	          0.20838984	          0.00999999	          0.00999999	          0.01996355	          0.23785019	          0.13182675	          0.08841114	          0.00999999	          0.10826182	          0.00999999	          0.00999999	          0.05545176	          0.11425067	          0.00999999	
          0.10333685	         -4.10284571	         -2.38242412	          4.66875315	          0.12734769	          0.94235202	         -0.00164430	         22.83025906	          1.36419835	        -10.32029377	        -13.32718345	          1.22872254	          1.14748726	         -7.03468707	         -6.41513746	        -13.11956073	        -30.91425240	         -4.46513182	         40.14787072	         -3.12136967	          4.31817841	        -10.05345808	          0.09448741	          0.04276885	          0.00999999	          0.12871638	          0.07470030	          0.08330713	          0.00999999	          0.07287531	          0.02537755	          0.00999999	          0.18640830	          0.00999999	          0.00999999	          0.33591368	          0.20251714	          0.00999999	          0.00999999	          0.01642705	          0.25642485	          0.12738909	          0.10136559	          0.00999999	          0.08908347	          0.00999999	          0.00999999	          0.04562860	          0.09401142	          0.00999999	
